# AST/ASF file generated using VICON BodyLanguage
# -----------------------------------------------
:version 1.10
:name VICON
:units
  mass 1.0
  length 0.45
  angle deg
:documentation
   .ast/.asf automatically generated from VICON data using
   VICON BodyBuilder and BodyLanguage model FoxedUp or BRILLIANT.MOD
:root
   order TX TY TZ RX RY RZ
   axis XYZ
   position 0 0 0  
   orientation 0 0 0 
:bonedata
  begin
     id 1 
     name lhipjoint
     direction 0.535335 -0.74333 0.401095 
     length 2.04549 
     axis 0 0 0  XYZ
  end
  begin
     id 2 
     name lfemur
     direction 0.34202 -0.939693 0  
     length 6.95643  
     axis 0 0 20  XYZ
    dof rx ry rz
    limits (-160.0 20.0)
           (-70.0 70.0)
           (-60.0 70.0)
  end
  begin
     id 3 
     name ltibia
     direction 0.34192 -0.939729 0   
     length 5.55969   
     axis 0 0 20   XYZ
    dof rx
    limits (-10.0 170.0)
  end
  begin
     id 4 
     name lfoot
     direction 0.216943 -0.596046 0.773088   
     length 2.27918   
     axis -90 7.62852e-016 20   XYZ
    dof rx rz
    limits (-45.0 90.0)
           (-70.0 20.0)
  end
  begin
     id 5 
     name ltoes
     direction 1.53519e-011 -4.21748e-011 1   
     length 1.05562   
     axis -90 7.62852e-016 20   XYZ
    dof rx
    limits (-90.0 20.0)
  end
  begin
     id 6 
     name rhipjoint
     direction -0.576368 -0.719173 0.38806   
     length 2.1142  
     axis 0 0 0  XYZ 
  end
  begin
     id 7 
     name rfemur
     direction -0.34202 -0.939693 0   
     length 7.07928   
     axis 0 0 -20   XYZ
    dof rx ry rz
    limits (-160.0 20.0)
           (-70.0 70.0)
           (-70.0 60.0)
  end
  begin
     id 8 
     name rtibia
     direction -0.34202 -0.939693 0   
     length 5.79974   
     axis 0 0 -20   XYZ
    dof rx
    limits (-10.0 170.0)
 end
 begin
     id 9 
     name rfoot
     direction -0.189288 -0.520065 0.832888   
     length 2.42173  
     axis -90 -7.62852e-016 -20   XYZ
    dof rx rz
    limits (-45.0 90.0)
           (-20.0 70.0)
  end
  begin
     id 10 
     name rtoes
     direction -1.53574e-011 -4.21658e-011 1   
     length 1.14469   
     axis -90 -7.62852e-016 -20   XYZ
    dof rx
    limits (-90.0 20.0)
  end
  begin
     id 11 
     name lowerback
     direction -0.00135702 0.993803 0.111144   
     length 1.91308   
     axis 0 0 0   XYZ
    dof rx ry rz
    limits (-20.0 45.0)
           (-30.0 30.0)
           (-30.0 30.0)
  end
  begin
     id 12 
     name upperback
     direction -0.0056745 0.999813 0.0184631   
     length 1.9212   
     axis 0 0 0   XYZ
    dof rx ry rz
    limits (-20.0 45.0)
           (-30.0 30.0)
           (-30.0 30.0)
  end
  begin
     id 13 
     name thorax
     direction -0.00733434 0.999426 -0.0330788   
     length 1.94196   
     axis 0 0 0   XYZ
    dof rx ry rz
    limits (-20.0 45.0)
           (-30.0 30.0)
           (-30.0 30.0)
  end
  begin
     id 14 
     name lowerneck
     direction 0.0563074 0.996944 -0.0541571   
     length 2.34257   
     axis 0 0 0   XYZ
    dof rx ry rz
    limits (-20.0 45.0)
           (-30.0 30.0)
           (-30.0 30.0)
  end
  begin
     id 15 
     name upperneck
     direction -0.0544519 0.976166 -0.210085   
     length 2.32506   
     axis 0 0 0   XYZ
    dof rx ry rz
    limits (-20.0 45.0)
           (-30.0 30.0)
           (-30.0 30.0)
  end
  begin
     id 16
     name head
     direction -0.0226035 0.997615 -0.0652205  
     length 2.3648  
     axis 0 0 0   XYZ
    dof rx ry rz
    limits (-20.0 45.0)
           (-30.0 30.0)
           (-30.0 30.0)
  end
  begin
     id 17 
     name lclavicle
     direction 0.92109 0.381297 -0.0787716  
     length 4.0487  
     axis 0 0 0   XYZ
    dof ry rz
    limits (-20.0 10.0)
           (0.0 20.0)
  end
  begin
     id 18 
     name lhumerus
     direction 1 -4.48986e-011 3.56724e-027   
     length 4.94991   
     axis 180 -30 -90   XYZ
    dof rx ry rz
    limits (-60.0 90.0)
           (-90.0 90.0)
           (-90.0 90.0)
  end
  begin
     id 19
     name lradius
     direction 1 -4.48981e-011 8.62147e-027   
     length 2.7606   
     axis 180 -30 -90   XYZ
    dof rx
    limits (-10.0 170.0)
  end
  begin
     id 20
     name lwrist
     direction 1 -4.48989e-011 1.59799e-026   
     length 1.3803   
     axis -1.17785e-014 90 90   XYZ
    dof ry
    limits (-180.0 0.0)
 end
  begin
     id 21 
     name lhand
     direction 1 -4.48896e-011 3.19599e-026   
     length 0.843936   
     axis -2.03931e-014 90 90   XYZ
    dof rx rz
    limits (-90.0 90.0)
           (-45.0 45.0)
  end
  begin
     id 22 
     name lfingers
     direction 1 -4.48887e-011 6.39197e-026   
     length 0.680403   
     axis -4.07862e-014 90 90   XYZ
    dof rx
    limits (0.0 90.0)
  end
  begin
     id 23
     name lthumb
     direction 0.707107 -6.348e-011 0.707107   
     length 0.976926   
     axis -90 45 2.85299e-015   XYZ
    dof rx rz
    limits (-45.0 45.0)
           (-45.0 45.0)
  end
  begin
     id 24 
     name rclavicle
     direction -0.951104 0.307692 -0.026953   
     length 4.21801  
     axis 0 0 0   XYZ 
    dof ry rz
    limits (-10.0 20.0)
           (-20.0 0.0)
  end
  begin
     id 25 
     name rhumerus
     direction -1 -4.4896e-011 -1.8171e-018  
     length 4.32982   
     axis 180 30 90   XYZ
    dof rx ry rz
    limits (-90.0 60.0)
           (-90.0 90.0)
           (-90.0 90.0)
  end
  begin
     id 26 
     name rradius
     direction -1 -4.48959e-011 8.25165e-027   
     length 3.20057   
     axis 180 30 90   XYZ
    dof rx
    limits (-10.0 170.0)
  end
  begin
     id 27 
     name rwrist
     direction -1 -4.48997e-011 1.59799e-026   
     length 1.60029   
     axis -1.17785e-014 -90 -90   XYZ
    dof ry
    limits (-180.0 0.0)
  end
  begin
     id 28
     name rhand
     direction -1 -4.49023e-011 3.19599e-026   
     length 0.960433   
     axis -2.03931e-014 -90 -90   XYZ
    dof rx rz
    limits (-90.0 90.0)
           (-45.0 45.0)
  end
  begin
     id 29
     name rfingers
     direction -1 -4.48802e-011 6.39197e-026   
     length 0.774326   
     axis -4.07862e-014 -90 -90   XYZ
    dof rx
    limits (0.0 90.0)
  end
  begin
     id 30
     name rthumb
     direction -0.707107 -6.34876e-011 0.707107   
     length 1.11178   
     axis -90 -45 -2.85299e-015   XYZ
    dof rx rz
    limits (-45.0 45.0)
           (-45.0 45.0)
  end
:hierarchy
  begin
    root lhipjoint rhipjoint lowerback
    lhipjoint lfemur
    lfemur ltibia
    ltibia lfoot
    lfoot ltoes
    rhipjoint rfemur
    rfemur rtibia
    rtibia rfoot
    rfoot rtoes
    lowerback upperback
    upperback thorax
    thorax lowerneck lclavicle rclavicle
    lowerneck upperneck
    upperneck head
    lclavicle lhumerus
    lhumerus lradius
    lradius lwrist
    lwrist lhand lthumb
    lhand lfingers
    rclavicle rhumerus
    rhumerus rradius
    rradius rwrist
    rwrist rhand rthumb
    rhand rfingers
end

#!OML:ASF C:\KaitlinTest1\Natural Motions\Nikki\Session 2\Nikki.ASF
:FULLY-SPECIFIED
:DEGREES
517
root -18.8763 16.6303 5.0589 -154.75 85.775 -164.676
lowerback -13.3949 -1.62187 -0.160708
upperback -4.05517 -1.91309 -0.636024
thorax 3.22337 -0.871578 -0.871898
lowerneck -1.7412 1.59174 8.50323
upperneck 27.3538 3.90406 -5.72794
head 9.08659 2.56501 -3.05699
rclavicle 1.20016e-014 1.07344e-014
rhumerus -42.7093 -22.0947 -79.2357
rradius 18.4487
rwrist 29.1228
rhand -35.8971 3.11658
rfingers 7.12502
rthumb -9.01051 -26.671
lclavicle 1.20016e-014 1.07344e-014
lhumerus -42.4821 16.4181 80.0633
lradius 23.9532
lwrist -40.4107
lhand -32.7542 3.71481
lfingers 7.12502
lthumb -5.9769 33.6105
rfemur -7.72865 -16.856 21.0252
rtibia 11.2068
rfoot -10.7602 12.013
rtoes 4.92986e-014
lfemur -9.92878 11.9885 -17.8967
ltibia 9.73437
lfoot -2.10721 -16.7138
ltoes 1.59028e-015
518
root -18.8756 16.6304 5.05846 -154.635 85.7873 -164.55
lowerback -13.4132 -1.61139 -0.152247
upperback -4.04232 -1.90067 -0.635546
thorax 3.24665 -0.865502 -0.874966
lowerneck -1.73038 1.58863 8.50276
upperneck 27.3298 3.89661 -5.72196
head 9.07536 2.56144 -3.05532
rclavicle 1.58034e-014 1.51076e-014
rhumerus -42.7055 -22.1289 -79.2188
rradius 18.4284
rwrist 29.0646
rhand -35.9644 3.20578
rfingers 7.12502
rthumb -9.07544 -26.579
lclavicle 1.58034e-014 1.51076e-014
lhumerus -42.4836 16.3668 80.1063
lradius 23.9824
lwrist -40.2959
lhand -32.7653 3.67271
lfingers 7.12502
lthumb -5.98759 33.5681
rfemur -7.71388 -16.8485 21.0218
rtibia 11.2055
rfoot -10.7438 12.0232
rtoes 3.02153e-014
lfemur -9.91291 12.0034 -17.8911
ltibia 9.73776
lfoot -2.10996 -16.7188
ltoes 6.67916e-014
519
root -18.8771 16.6292 5.05837 -154.993 85.8112 -164.891
lowerback -13.3847 -1.61419 -0.187325
upperback -4.03753 -1.90065 -0.632621
thorax 3.23748 -0.865808 -0.851436
lowerneck -1.74822 1.59647 8.49829
upperneck 27.3591 3.91755 -5.75254
head 9.091 2.5686 -3.06358
rclavicle 1.79155e-014 2.78299e-015
rhumerus -42.7114 -22.1248 -79.1936
rradius 18.4377
rwrist 29.167
rhand -35.9577 3.13952
rfingers 7.12502
rthumb -9.06897 -26.6455
lclavicle 1.79155e-014 2.78299e-015
lhumerus -42.4845 16.4721 80.0432
lradius 23.9476
lwrist -40.5428
lhand -32.6801 3.7058
lfingers 7.12502
lthumb -5.90535 33.6035
rfemur -7.69287 -16.8254 20.9813
rtibia 11.1919
rfoot -10.7237 12.016
rtoes 8.11041e-014
lfemur -9.88864 12.0127 -17.9251
ltibia 9.75289
lfoot -2.15459 -16.7107
ltoes 9.54166e-015
520
root -18.8776 16.6296 5.05785 -154.697 85.7776 -164.57
lowerback -13.3505 -1.61481 -0.153501
upperback -4.03231 -1.90681 -0.632566
thorax 3.22322 -0.869188 -0.870516
lowerneck -1.76999 1.59873 8.48471
upperneck 27.3835 3.90772 -5.69543
head 9.10206 2.56812 -3.0421
rclavicle -2.91468e-014 -1.19271e-015
rhumerus -42.7229 -22.1604 -79.1979
rradius 18.4327
rwrist 29.146
rhand -35.9837 3.20912
rfingers 7.12502
rthumb -9.09406 -26.5748
lclavicle -2.91468e-014 -1.19271e-015
lhumerus -42.4934 16.5011 80.0002
lradius 23.9411
lwrist -40.5845
lhand -32.7816 3.58119
lfingers 7.12502
lthumb -6.00338 33.4761
rfemur -7.66806 -16.8396 21.0111
rtibia 11.1931
rfoot -10.7299 12.014
rtoes 2.06736e-014
lfemur -9.8845 11.9919 -17.8818
ltibia 9.75145
lfoot -2.11526 -16.7175
ltoes 9.54166e-015
521
root -18.8767 16.6288 5.05789 -154.1 85.7566 -163.972
lowerback -13.3749 -1.60714 -0.104367
upperback -4.02029 -1.90392 -0.61966
thorax 3.24784 -0.867754 -0.885195
lowerneck -1.7707 1.59868 8.48668
upperneck 27.366 3.90638 -5.69997
head 9.09597 2.56655 -3.04398
rclavicle 2.4699e-014 1.11319e-014
rhumerus -42.7067 -22.1545 -79.2085
rradius 18.4227
rwrist 29.0822
rhand -35.9339 3.18325
rfingers 7.12502
rthumb -9.04599 -26.6028
lclavicle 2.4699e-014 1.11319e-014
lhumerus -42.4657 16.3243 80.1303
lradius 23.9777
lwrist -40.2698
lhand -32.7842 3.65274
lfingers 7.12502
lthumb -6.00585 33.5476
rfemur -7.66245 -16.8219 21.0639
rtibia 11.1945
rfoot -10.7508 12.0004
rtoes -2.62396e-014
lfemur -9.86946 11.9933 -17.8258
ltibia 9.74991
lfoot -2.13974 -16.7329
ltoes -6.99722e-014
522
root -18.8769 16.6287 5.05777 -154.374 85.7623 -164.266
lowerback -13.3824 -1.61487 -0.135314
upperback -4.03353 -1.90931 -0.618669
thorax 3.23906 -0.87015 -0.867553
lowerneck -1.76306 1.60142 8.4829
upperneck 27.3692 3.91062 -5.69423
head 9.09588 2.56909 -3.04104
rclavicle 2.35063e-014 1.19271e-014
rhumerus -42.7332 -22.1581 -79.1874
rradius 18.4333
rwrist 29.1308
rhand -35.975 3.24845
rfingers 7.12502
rthumb -9.08566 -26.5359
lclavicle 2.35063e-014 1.19271e-014
lhumerus -42.4904 16.3473 80.1276
lradius 23.9507
lwrist -40.2828
lhand -32.8701 3.65191
lfingers 7.12502
lthumb -6.08876 33.5444
rfemur -7.68199 -16.8025 21.0493
rtibia 11.1764
rfoot -10.7136 11.9648
rtoes 3.02153e-014
lfemur -9.89731 11.9899 -17.8512
ltibia 9.77433
lfoot -2.17934 -16.7158
ltoes 1.11319e-014
523
root -18.876 16.629 5.05695 -154.029 85.7541 -163.902
lowerback -13.3666 -1.61846 -0.0933254
upperback -4.04104 -1.92012 -0.60738
thorax 3.22148 -0.875519 -0.880539
lowerneck -1.71997 1.60876 8.47099
upperneck 27.3508 3.92627 -5.69609
head 9.08238 2.57582 -3.03848
rclavicle -7.05686e-015 -7.55382e-015
rhumerus -42.7583 -22.0929 -79.2066
rradius 18.438
rwrist 29.0509
rhand -35.9531 3.20183
rfingers 7.12502
rthumb -9.06454 -26.5834
lclavicle -7.05686e-015 -7.55382e-015
lhumerus -42.5006 16.3877 80.0844
lradius 23.9281
lwrist -40.3479
lhand -32.8375 3.57984
lfingers 7.12502
lthumb -6.05734 33.4733
rfemur -7.65546 -16.7807 21.0646
rtibia 11.1706
rfoot -10.7079 11.9544
rtoes -3.18055e-014
lfemur -9.87549 11.9935 -17.8197
ltibia 9.77481
lfoot -2.16649 -16.727
ltoes -2.38542e-014
524
root -18.876 16.6281 5.0556 -154.228 85.77 -164.113
lowerback -13.3924 -1.61263 -0.103367
upperback -4.0317 -1.91051 -0.618927
thorax 3.24528 -0.870716 -0.886324
lowerneck -1.71602 1.61187 8.48857
upperneck 27.3263 3.92499 -5.69122
head 9.07326 2.57653 -3.03974
rclavicle -2.45499e-014 -3.97569e-015
rhumerus -42.7385 -22.1431 -79.2092
rradius 18.4323
rwrist 29.101
rhand -35.95 3.14595
rfingers 7.12502
rthumb -9.06156 -26.6394
lclavicle -2.45499e-014 -3.97569e-015
lhumerus -42.4884 16.4287 80.0577
lradius 23.9384
lwrist -40.4074
lhand -32.8167 3.58171
lfingers 7.12502
lthumb -6.03724 33.4757
rfemur -7.66187 -16.866 21.0449
rtibia 11.1615
rfoot -10.7335 12.0375
rtoes -1.11319e-014
lfemur -9.87806 11.9993 -17.8552
ltibia 9.77885
lfoot -2.17719 -16.7158
ltoes -7.95139e-015
525
root -18.875 16.6284 5.05486 -154.361 85.7764 -164.246
lowerback -13.4168 -1.61094 -0.108627
upperback -4.01898 -1.90748 -0.624165
thorax 3.27185 -0.86923 -0.889286
lowerneck -1.74177 1.61787 8.47826
upperneck 27.3462 3.92588 -5.66069
head 9.08465 2.57861 -3.02715
rclavicle 2.23633e-015 9.14409e-015
rhumerus -42.7144 -22.1458 -79.2288
rradius 18.4131
rwrist 29.0849
rhand -35.9673 3.16367
rfingers 7.12502
rthumb -9.0783 -26.621
lclavicle 2.23633e-015 9.14409e-015
lhumerus -42.4481 16.3047 80.1643
lradius 23.9234
lwrist -40.0624
lhand -32.9315 3.53499
lfingers 7.12502
lthumb -6.14809 33.4258
rfemur -7.65735 -16.7955 21.0188
rtibia 11.1678
rfoot -10.6958 11.9771
rtoes 3.33958e-014
lfemur -9.86856 12.0003 -17.8701
ltibia 9.76392
lfoot -2.16723 -16.7128
ltoes -4.77083e-015
526
root -18.8744 16.6287 5.05603 -154.083 85.7546 -163.981
lowerback -13.4305 -1.61801 -0.0987549
upperback -4.02806 -1.91806 -0.610779
thorax 3.26978 -0.874206 -0.882791
lowerneck -1.72641 1.61846 8.51008
upperneck 27.3424 3.93618 -5.70479
head 9.08251 2.58293 -3.04731
rclavicle -5.71506e-015 -1.07344e-014
rhumerus -42.7095 -22.0795 -79.277
rradius 18.4242
rwrist 28.9757
rhand -35.9419 3.1147
rfingers 7.12502
rthumb -9.05376 -26.671
lclavicle -5.71506e-015 -1.07344e-014
lhumerus -42.4866 16.4439 80.0299
lradius 23.9235
lwrist -40.4813
lhand -32.7242 3.59019
lfingers 7.12502
lthumb -5.9479 33.4867
rfemur -7.67351 -16.7367 21.0564
rtibia 11.1759
rfoot -10.6908 11.9102
rtoes -4.53229e-014
lfemur -9.88556 11.9912 -17.8367
ltibia 9.75557
lfoot -2.13449 -16.7199
ltoes -4.6118e-014
527
root -18.8752 16.6289 5.05457 -154.431 85.781 -164.359
lowerback -13.4429 -1.61476 -0.122926
upperback -4.03955 -1.90947 -0.617946
thorax 3.26512 -0.869687 -0.875427
lowerneck -1.76091 1.618 8.47395
upperneck 27.3819 3.92914 -5.66345
head 9.10106 2.58027 -3.02724
rclavicle -1.89342e-014 -5.96354e-015
rhumerus -42.7435 -22.2297 -79.1528
rradius 18.3856
rwrist 29.2243
rhand -35.9458 3.1787
rfingers 7.12502
rthumb -9.05753 -26.6068
lclavicle -1.89342e-014 -5.96354e-015
lhumerus -42.4687 16.3589 80.1101
lradius 23.9292
lwrist -40.279
lhand -32.7464 3.59828
lfingers 7.12502
lthumb -5.96938 33.4942
rfemur -7.7004 -16.7727 21.0196
rtibia 11.1545
rfoot -10.6812 11.9556
rtoes -3.26007e-014
lfemur -9.91789 12.0015 -17.8934
ltibia 9.76813
lfoot -2.157 -16.7107
ltoes 1.43125e-014
528
root -18.8758 16.6292 5.05455 -154.35 85.7715 -164.262
lowerback -13.4248 -1.615 -0.12218
upperback -4.03157 -1.91063 -0.616748
thorax 3.26367 -0.870526 -0.874412
lowerneck -1.74922 1.61823 8.48501
upperneck 27.3558 3.92355 -5.65197
head 9.08936 2.57912 -3.02548
rclavicle 8.62228e-015 0
rhumerus -42.7383 -22.1385 -79.218
rradius 18.4228
rwrist 29.127
rhand -35.8964 3.11262
rfingers 7.12502
rthumb -9.00983 -26.675
lclavicle 8.62228e-015 0
lhumerus -42.4909 16.5254 79.9564
lradius 23.8994
lwrist -40.7858
lhand -32.6837 3.57493
lfingers 7.12502
lthumb -5.90885 33.4725
rfemur -7.66987 -16.7522 21.0319
rtibia 11.1406
rfoot -10.7028 11.9269
rtoes -4.77083e-015
lfemur -9.91934 11.996 -17.8767
ltibia 9.78323
lfoot -2.16741 -16.7337
ltoes 1.43125e-014
529
root -18.876 16.6289 5.0541 -154.01 85.7441 -163.912
lowerback -13.4229 -1.6167 -0.0788793
upperback -4.02411 -1.91942 -0.608442
thorax 3.26916 -0.874994 -0.891615
lowerneck -1.73097 1.61431 8.47704
upperneck 27.3222 3.91858 -5.65837
head 9.07348 2.57464 -3.02664
rclavicle 0 -9.93923e-015
rhumerus -42.734 -22.1488 -79.2338
rradius 18.4289
rwrist 29.1044
rhand -35.9417 3.17231
rfingers 7.12502
rthumb -9.05356 -26.6134
lclavicle 0 -9.93923e-015
lhumerus -42.4675 16.4596 80.005
lradius 23.9047
lwrist -40.6208
lhand -32.7403 3.51154
lfingers 7.12502
lthumb -5.9635 33.4076
rfemur -7.65045 -16.7421 21.0626
rtibia 11.1301
rfoot -10.7042 11.899
rtoes 1.66979e-014
lfemur -9.91463 11.9827 -17.8373
ltibia 9.79424
lfoot -2.19122 -16.7242
ltoes -3.97569e-014
530
root -18.875 16.6293 5.05362 -154.227 85.7506 -164.123
lowerback -13.4164 -1.61608 -0.0900863
upperback -4.02837 -1.91648 -0.619711
thorax 3.2612 -0.873522 -0.89632
lowerneck -1.72094 1.60852 8.51486
upperneck 27.3323 3.91268 -5.67363
head 9.07579 2.57498 -3.03921
rclavicle 2.22887e-014 1.19271e-015
rhumerus -42.7571 -22.2929 -79.1259
rradius 18.3575
rwrist 29.3674
rhand -35.9299 3.2286
rfingers 7.12502
rthumb -9.04211 -26.5576
lclavicle 2.22887e-014 1.19271e-015
lhumerus -42.4955 16.3814 80.0386
lradius 23.9387
lwrist -40.5105
lhand -32.7345 3.52986
lfingers 7.12502
lthumb -5.9579 33.4261
rfemur -7.63167 -16.7624 21.038
rtibia 11.1133
rfoot -10.7227 11.9221
rtoes 3.02153e-014
lfemur -9.9145 11.9807 -17.857
ltibia 9.81396
lfoot -2.192 -16.7284
ltoes 1.74931e-014
